<?xml version="1.0" encoding="UTF-8"?>
<svg id="Layer_4" data-name="Layer 4" xmlns="http://www.w3.org/2000/svg" viewBox="0 0 1080 1080">
  <defs>
    <style>
      .cls-1 {
        fill: #fff;
      }

      .cls-2 {
        fill: #38f5f1;
      }
    </style>
  </defs>
  <path class="cls-2" d="M543.4,97.73c-243.36,0-440.65,197.29-440.65,440.65s197.29,440.65,440.65,440.65,440.65-197.29,440.65-440.65S786.76,97.73,543.4,97.73ZM309.25,688.61c-7.12,2.52-13.92,1.36-20.26-1.78,5.62,13.68,11.69,27.19,17.77,40.67,5.32,11.79-3.35,24.92-16.84,21.91-16.52-3.69-30.66-12.02-42.94-22.82,11.74,24.22,24.28,48.07,37.61,71.49,7.01,12.31-7.64,29.15-20.4,20.4-1.34-.92-2.66-1.86-3.97-2.81-1.82-.79-3.52-2.03-4.99-3.78-19.11-14.99-34.64-33.52-48.75-53.42-16.28-22.95-32.05-46.87-44.5-72.15-13.35-27.11-21.72-55.4-22.56-85.74-.8-28.78-1.24-61.27,9.45-88.38,2.44-6.18,7.35-10.95,14.38-10.95,6.03,0,13.34,4.59,14.38,10.95,4.52,27.72,10.45,55.15,17.75,82.18,5.95-16.61,12.57-32.97,19.82-49.09,3.32-7.38,14.02-9.08,20.4-5.35,5.34,3.12,7.45,8.46,7.02,13.93,3.28,11.79,9.32,22.5,14.27,33.66,3.27-8.92,6.8-17.75,10.59-26.51,3.22-7.43,14.1-9.03,20.4-5.35,1.09.64,2.02,1.37,2.85,2.16,2.57,1.87,4.48,4.48,4.97,7.67,2.81,18.58,6.32,37.04,10.62,55.33,2.01,8.55,3.94,17.22,6.64,25.58,2.23,6.91,8.02,11.7,9.71,18.8,2.37,9.97-4.05,20.05-13.43,23.37ZM927.64,581.68c-6.03,0-13.34-4.59-14.38-10.95-4.52-27.72-10.45-55.15-17.75-82.18-5.95,16.61-12.57,32.97-19.82,49.09-3.32,7.38-14.02,9.08-20.4,5.35-5.34-3.12-7.45-8.46-7.02-13.93-3.28-11.79-9.32-22.5-14.27-33.66-3.27,8.92-6.8,17.75-10.59,26.51-3.22,7.43-14.1,9.03-20.4,5.35-1.09-.64-2.02-1.37-2.85-2.16-2.57-1.87-4.48-4.48-4.97-7.67-2.81-18.58-6.32-37.04-10.62-55.33-2.01-8.55-3.94-17.22-6.64-25.58-2.23-6.91-8.02-11.7-9.71-18.8-2.37-9.97,4.05-20.05,13.43-23.37,7.12-2.52,13.92-1.36,20.26,1.78-5.62-13.68-11.69-27.19-17.77-40.67-5.32-11.79,3.35-24.92,16.84-21.91,16.52,3.69,30.66,12.02,42.94,22.82-11.74-24.22-24.28-48.07-37.61-71.49-7.01-12.31,7.64-29.15,20.4-20.4,1.34.92,2.66,1.86,3.97,2.81,1.82.79,3.52,2.03,4.99,3.78,19.11,14.99,34.64,33.52,48.75,53.42,16.28,22.95,32.05,46.87,44.5,72.15,13.35,27.11,21.72,55.4,22.56,85.74.8,28.78,1.24,61.27-9.45,88.38-2.44,6.18-7.35,10.95-14.38,10.95Z"/>
  <g>
    <g>
      <path class="cls-1" d="M398.45,599.36c.09-.65.02-.19,0,0h0Z"/>
      <path class="cls-1" d="M473.7,642.99s0-.05,0-.06c0,0,0,0,0,0,0,.02,0,.04,0,.07Z"/>
      <path class="cls-1" d="M760.16,520.24c-3.81-31.61-17.18-61.56-35.6-87.31-18.18-25.41-41.63-47.08-68.04-63.72-26.04-16.41-55.03-28.01-85.28-33.75-30.24-5.73-61.59-5.23-91.53,1.99-29.85,7.19-58.25,20.65-82.53,39.47-6.08,4.71-11.89,9.76-17.41,15.11-5.65,5.47-11.11,11.18-15.62,17.63-8.99,12.87-14.51,27.6-20.77,41.89-3.24,7.39-7,14.54-9.86,22.1-2.92,7.72-5.19,15.71-6.6,23.85-2.77,15.96-1.82,32.59,4.1,47.75,9.75,24.98,36.98,45.34,64.6,40.54,2.7-.47,5.9,1.74,4.83,4.83-.5,1.44-.89,2.91-1.22,4.4-.18.81-.33,1.63-.48,2.45-.07.43-.14.87-.21,1.3-.03.21-.06.41-.09.62,0,0,0,.02,0,.03-.49,4-.7,8.03-.58,12.06.05,1.87.17,3.74.38,5.6.14,1.26.09.89.3,2.18.14.87.31,1.73.49,2.59.37,1.71.84,3.41,1.43,5.05.13.36.27.72.41,1.07.06.13.26.58.31.69.33.7.69,1.38,1.08,2.05.25.42.51.82.78,1.22.07.1.17.24.24.34.41.52.85,1.02,1.33,1.49.29.28.59.54.9.81,0,0,0,0,.01.01.13.09.26.19.39.27.55.35,1.12.66,1.7.96.02.01.02.01.04.02,0,0,0,0,0,0,.19.07.38.14.58.21.3.1.6.18.9.26.35.09.71.15,1.06.22.13.02.32.04.46.05.95.05,1.88.03,2.83-.04.13-.01.2-.01.23-.01.04,0,.11-.02.24-.05.53-.09,1.06-.2,1.59-.33,6.25-1.54,11.95-5.9,18.52-2.74,5.37,2.58,6.18,8.47,9.55,12.74,2.87,3.64,8.11,5.68,12.67,4.64,4.7-1.08,8.47-4.65,9.79-9.29,1.32-4.64,7.76-3.03,7.65,1.31.05.14.07.29.12.42.07.19.1.29.12.35.02.03.05.09.08.16.11.22.21.43.32.64.77,1.49,1.68,2.91,2.63,4.3,1.9,2.79,3.32,4.69,5.44,7.16,5.48,6.41,13.6,10.84,22.15,10.65,7.22-.16,14.37-3.56,18.94-9.16,5.76-7.05,4.55-16.92,8.58-24.8,3.66-7.15,10.85-11.64,18.83-12.04,8.64-.43,16.01,4.34,22.61,9.36,7.43,5.65,14.28,12.03,22.34,16.82.15.09.3.19.45.28.98.57,1.97,1.12,2.97,1.64,1.16.61,2.34,1.18,3.53,1.72,6.13,2.8,12.69,4.73,19.41,5.19,15.45,1.06,32.74-6.47,38.32-21.85.73-2,2.65-3.34,4.83-2.74,1.93.53,3.46,2.83,2.74,4.83-1.31,3.62-3.12,6.89-5.3,9.84-9.8,13.24-27.39,19.55-43.91,17.45-6.89-.88-13.55-2.92-19.84-5.82-.18.32-.36.64-.52.96-.07.14-.18.29-.24.44-.09.24.22-.36.21-.32-.14.57-.32,1.12-.49,1.68-1.55,5.16-3.58,10.19-5.98,15-4.74,9.49-11.17,18.22-18.75,25.64-7.51,7.35-16.26,13.56-25.79,18.02-10.05,4.7-21.75,8.37-32.94,6.84-5.36-.73-10.11-3.18-13.55-7.39-3.29-4.03-5.36-8.76-7.73-13.35-2.49-4.84-5.19-9.72-9.3-13.37-4.13-3.67-9.34-4.51-14.58-2.96-2.96.87-5.8,1.62-8.77.3-2.7-1.21-4.12-3.47-5.19-6.11-.78-1.93-1.21-4.12-2.25-5.86-1.2-2-3.31-3.61-5.33-4.72-8.01-4.38-18.42,0-22.26,7.88-1.65,3.38-7.77,1.88-7.31-1.98.43-3.69.98-7.56.41-11.26-.42-2.75-1.56-5.69-3.8-7.47-2.19-1.73-5.23-1.88-7.85-1.31-6.01,1.3-11.68,4.91-16.65,8.44-4.29,3.05-8.39,6.95-10.5,11.86-2.22,5.16-1.47,10.85-.85,16.27.63,5.42,1.79,11.03,4.31,15.91,2.84,5.5,7.05,8.99,12.32,12.05,13.39,7.78,26.96,15.29,41.03,21.78,13.59,6.28,27.77,11.66,42.43,14.81,11.27,2.43,22.86,3.16,34.37,2.45,23.25-1.43,46.05-9.03,65.8-21.31.15-.09.3-.19.45-.29,15.53-9.74,29.07-22.49,39.42-37.56,2.72-3.96,5.23-8.07,7.48-12.34,2.36-4.47,9.13-.5,6.78,3.96-1.47,2.78-3.02,5.5-4.69,8.16-11.24,17.98-26.83,33.1-44.77,44.38,10.49-1.57,20.84-4.06,30.93-7.4,27.49-9.1,52.88-24.51,73.9-44.4,14.7-13.91,27.31-30.07,36.98-47.83-18.18,17.29-41.34,29.56-66.23,33.23-2.1.31-4.21-.49-4.83-2.74-.51-1.86.64-4.52,2.74-4.83.54-.08,1.07-.19,1.61-.28,6.43-1.04,12.76-2.62,18.91-4.77,22.79-7.98,42.74-23.49,57.06-42.9.78-1.05,1.53-2.11,2.27-3.18.74-1.07,1.48-2.15,2.19-3.25.83-1.28,1.65-2.57,2.43-3.88,16.72-28.06,22.06-61.77,18.18-93.96ZM460.58,506.26c-.74,2.55-1.61,5.06-2.62,7.52-8.3,20.16-25.53,37.15-48.2,38.48-10.14.59-20.86-2.09-29.04-8.25-9.42-7.1-14.61-17.94-16.24-29.46-1.66-11.76-.51-24.1,3.09-35.42,3.64-11.45,10.02-22.61,19.73-29.94,8.28-6.26,18.84-8.47,29.05-7.29,5.32.61,10.49,1.86,15.53,3.67,5.1,1.83,10.24,3.96,14.67,7.13,7.93,5.67,13.49,13.86,15.64,23.39,2.26,9.98,1.15,20.42-1.61,30.18ZM540.14,537.93c-.63,8-1.67,16-3.26,23.87-1.55,7.66-3.58,15.61-7.5,22.44-3.29,5.73-8.63,10.55-15.67,9.3-3.6-.64-6.8-2.86-9.44-5.28-2.21-2.02-3.71-4.55-4.52-7.28-1.74,1.41-3.65,2.62-5.79,3.5-5.12,2.1-11.43,2.16-16.06-1.18-4.1-2.96-6.2-7.62-6.66-12.57-.49-5.26,1.35-10.41,3.71-15.02,4.7-9.19,10.74-17.96,17.08-26.08,6.15-7.89,13.14-15.05,21.24-20.95,3.85-2.81,8.16-5.95,13.04-6.43,2.56-.25,5.19.51,7.04,2.34,2.12,2.1,2.61,4.95,2.95,7.78.48,3.6,2.67,6.84,3.59,10.33.55,2.07.72,4.2.7,6.33-.03,2.97-.22,5.95-.46,8.91ZM585.29,594.11c-9.01-8.33-12.83-20.63-13.57-32.57-.67-10.82,1.13-21.88,4.51-32.15,3.38-10.27,8.44-20.49,16.21-28.16,8.14-8.04,18.88-10.93,30.09-9.46,10.94,1.43,21.65,5.98,30.92,11.9,18.48,11.8,20.48,36.01,14.98,55.4-.77,2.65-1.68,5.24-2.73,7.79-8.6,20.8-27.02,38.21-50.58,38.28-10.84.03-21.8-3.61-29.83-11.03Z"/>
    </g>
    <g>
      <path d="M536.3,512.37c-.34-2.83-.83-5.68-2.95-7.78-1.85-1.84-4.48-2.59-7.04-2.34-4.88.48-9.19,3.62-13.04,6.43-8.1,5.9-15.09,13.06-21.24,20.95-6.34,8.12-12.38,16.89-17.08,26.08-2.36,4.62-4.2,9.76-3.71,15.02.46,4.94,2.56,9.61,6.66,12.57,4.63,3.34,10.95,3.29,16.06,1.18,2.14-.88,4.05-2.09,5.79-3.5.81,2.73,2.31,5.26,4.52,7.28,2.64,2.42,5.85,4.64,9.44,5.28,7.03,1.25,12.38-3.57,15.67-9.3,3.92-6.83,5.95-14.78,7.5-22.44,1.59-7.87,2.63-15.87,3.26-23.87.23-2.96.43-5.94.46-8.91.02-2.13-.16-4.26-.7-6.33-.92-3.49-3.12-6.73-3.59-10.33Z"/>
      <path d="M446.56,452.69c-4.43-3.17-9.56-5.3-14.67-7.13-5.04-1.81-10.21-3.06-15.53-3.67-10.21-1.18-20.77,1.04-29.05,7.29-9.7,7.33-16.08,18.5-19.73,29.94-3.6,11.32-4.76,23.66-3.09,35.42,1.63,11.53,6.82,22.36,16.24,29.46,8.17,6.16,18.89,8.84,29.04,8.25,22.67-1.33,39.9-18.32,48.2-38.48,1.01-2.46,1.87-4.97,2.62-7.52,2.77-9.76,3.87-20.2,1.61-30.18-2.16-9.53-7.71-17.72-15.64-23.39Z"/>
      <path d="M653.45,503.66c-9.27-5.92-19.97-10.47-30.92-11.9-11.21-1.47-21.95,1.42-30.09,9.46-7.77,7.67-12.83,17.9-16.21,28.16-3.38,10.28-5.18,21.33-4.51,32.15.74,11.94,4.56,24.24,13.57,32.57,8.03,7.42,18.99,11.06,29.83,11.03,23.55-.07,41.97-17.49,50.58-38.28,1.05-2.55,1.96-5.14,2.73-7.79,5.5-19.39,3.5-43.6-14.98-55.4Z"/>
    </g>
  </g>
</svg>